<svg id="Group_10670" data-name="Group 10670" xmlns="http://www.w3.org/2000/svg" xmlns:xlink="http://www.w3.org/1999/xlink" viewBox="0 0 140 38.141">
  <defs>
    <style>
      .cls-1 {
        clip-path: url(#clip-path);
      }

      .cls-2 {
        fill: #515051;
      }

      .cls-3 {
        fill: #6550a3;
      }

      .cls-4 {
        fill: #ff6409;
      }

      .cls-5 {
        fill: #80c41c;
      }

      .cls-6 {
        fill: #ffb300;
      }

      .cls-7 {
        fill: #e80368;
      }
    </style>
    <clipPath id="clip-path">
      <rect id="Rectangle_11567" data-name="Rectangle 11567" width="140" height="38.141"/>
    </clipPath>
  </defs>
  <g id="Group_10208" data-name="Group 10208" class="cls-1">
    <path id="Path_5635" data-name="Path 5635" class="cls-2" d="M79.618,128.18H68.654a.9.9,0,0,0-.9.9v13.536a4.219,4.219,0,0,0,4.2,4.218h7.658a1.2,1.2,0,0,0,1.2-1.2,1.213,1.213,0,0,0-1.2-1.212H72.259a1.816,1.816,0,0,1-1.81-1.81V138.1h7.209a1.2,1.2,0,0,0,1.2-1.2,1.213,1.213,0,0,0-1.2-1.212H70.449v-5.115h9.169a1.2,1.2,0,0,0,0-2.393M3.6,130.588h8.107a1.2,1.2,0,1,0,0-2.393H3.306A3.3,3.3,0,0,0,0,131.5v14.15H0a1.353,1.353,0,0,0,1.346,1.361,1.353,1.353,0,0,0,1.346-1.361h0v-7.374h7.359a1.2,1.2,0,0,0,0-2.408H2.707V131.5a.9.9,0,0,1,.9-.912m135.2,0a1.2,1.2,0,0,0,0-2.393H127.855a.9.9,0,0,0-.9.9v13.536a4.219,4.219,0,0,0,4.2,4.218H138.8a1.2,1.2,0,0,0,1.2-1.2,1.213,1.213,0,0,0-1.2-1.212h-7.359a1.816,1.816,0,0,1-1.81-1.81v-4.517h7.209a1.2,1.2,0,0,0,1.2-1.2,1.213,1.213,0,0,0-1.2-1.212h-7.209v-5.115Zm-35.6-2.558a1.353,1.353,0,0,0-1.346,1.361V145.65a1.346,1.346,0,1,0,2.692,0V129.391a1.353,1.353,0,0,0-1.346-1.361m-5.25,17.006a20.8,20.8,0,0,0-3.949-6.282,4.952,4.952,0,0,0,3.186-5v-.15h0c0-3.306-2.109-5.415-5.714-5.415H84.733a.9.9,0,0,0-.9.9h0V145.65a1.346,1.346,0,1,0,2.692,0v-6.476h4.053c1.959,1.3,3.6,4.218,4.951,7.075h0a1.338,1.338,0,0,0,1.212.748,1.368,1.368,0,0,0,1.212-1.959Zm-6.626-8.271h-4.8V130.6h4.8a2.876,2.876,0,0,1,3.156,3.006v.15a2.876,2.876,0,0,1-3.156,3.006m-45.35,8.271a20.8,20.8,0,0,0-3.949-6.282,4.952,4.952,0,0,0,3.186-5v-.15h0c0-3.306-2.109-5.415-5.714-5.415H32.756a.9.9,0,0,0-.9.9h0V145.65a1.346,1.346,0,1,0,2.692,0v-6.476H38.6c1.959,1.3,3.6,4.218,4.951,7.075h0a1.338,1.338,0,0,0,1.212.748,1.368,1.368,0,0,0,1.212-1.959Zm-6.626-8.271h-4.8V130.6h4.8a2.876,2.876,0,0,1,3.156,3.006v.15a2.876,2.876,0,0,1-3.156,3.006m84.284,8.271c-1.421-3.111-3.889-6.88-6.312-8.571l6.058-6.118a1.354,1.354,0,0,0-1.929-1.9l-8.81,8.9v-7.942a1.346,1.346,0,1,0-2.692,0v16.259a1.346,1.346,0,1,0,2.692,0v-4.472l2.917-2.947c1.915,1.526,4.382,5.325,5.639,8.017h0a1.338,1.338,0,0,0,1.212.748,1.353,1.353,0,0,0,1.346-1.361,1.189,1.189,0,0,0-.12-.613Zm-60.7-8.571h-6.6a1.2,1.2,0,0,0,0,2.393h4.8v5.325a15.48,15.48,0,0,1-3.335.389c-6.88-.06-6.581-3.859-6.581-5.115v-3.919c0-1.256-.3-5.056,6.581-5.115a16,16,0,0,1,4.368.628,1.155,1.155,0,0,0,1.406-.882,1.191,1.191,0,0,0-.868-1.451A15,15,0,0,0,57.974,128h-.3c-8.241,0-9.169,4.712-9.169,7.524v3.919c0,2.812.927,7.524,9.169,7.524h.3a18.511,18.511,0,0,0,5.175-.718h0a.894.894,0,0,0,.673-.868h0v-.673h0v-7.374a.871.871,0,0,0-.882-.868m-40.669-7.284-.224-.4a.664.664,0,0,0-.12-.165,1.785,1.785,0,0,0-1.346-.568,1.744,1.744,0,0,0-1.346.583l-.135.179-.209.389a101.618,101.618,0,0,0-6.806,16.064,1.347,1.347,0,0,0,.9,1.69,1.232,1.232,0,0,0,.389.06,1.341,1.341,0,0,0,1.286-.957c.449-1.5.987-3.051,1.571-4.607h8.705c.583,1.571,1.107,3.126,1.571,4.607a1.355,1.355,0,0,0,1.286.957,1.115,1.115,0,0,0,.389-.06,1.347,1.347,0,0,0,.9-1.69,99.84,99.84,0,0,0-6.806-16.079m-5.1,9.842c1.062-2.618,2.229-5.19,3.41-7.434,1.182,2.259,2.348,4.816,3.41,7.434Z" transform="translate(0 -108.855)"/>
  </g>
  <g id="Group_10209" data-name="Group 10209" class="cls-1">
    <path id="Path_5636" data-name="Path 5636" class="cls-3" d="M233.7,0V10.006h6L243.706,6V0Z" transform="translate(-198.745)"/>
  </g>
  <g id="Group_10210" data-name="Group 10210" class="cls-1">
    <path id="Path_5637" data-name="Path 5637" class="cls-4" d="M334,0V10.006h6L344.006,6V0Z" transform="translate(-284.043)"/>
  </g>
  <g id="Group_10211" data-name="Group 10211" class="cls-1">
    <path id="Path_5638" data-name="Path 5638" class="cls-5" d="M434.3,0V10.006h6L444.291,6V0Z" transform="translate(-369.341)"/>
  </g>
  <g id="Group_10212" data-name="Group 10212" class="cls-1">
    <path id="Path_5639" data-name="Path 5639" class="cls-6" d="M534.6,0V10.006h6L544.591,6V0Z" transform="translate(-454.638)"/>
  </g>
  <g id="Group_10213" data-name="Group 10213" class="cls-1">
    <path id="Path_5640" data-name="Path 5640" class="cls-7" d="M634.9,0V10.006h6L644.891,6V0Z" transform="translate(-539.936)"/>
  </g>
</svg>
